<svg xmlns="http://www.w3.org/2000/svg" width="22" height="16" viewBox="0 0 22 16">
  <path fill="#D9D9D9" d="M387.616,177.744 C389.002674,177.466665 390.094663,176.981337 390.892,176.288 C391.689337,175.594663 392.088,174.728005 392.088,173.688 C392.088,172.855996 391.637338,172.44 390.736,172.44 C388.10132,172.335999 386.784,171.088012 386.784,168.696 C386.784,167.517327 387.199996,166.512004 388.032,165.68 C388.864004,164.847996 389.869327,164.432 391.048,164.432 C392.573341,164.432 393.786662,165.021327 394.688,166.2 C395.589338,167.378673 396.04,168.869324 396.04,170.672 C396.04,173.445347 395.277341,175.54266 393.752,176.964 C392.226659,178.38534 390.181346,179.303998 387.616,179.72 L387.616,177.744 Z M399.056,177.744 C400.442674,177.466665 401.534663,176.981337 402.332,176.288 C403.129337,175.594663 403.528,174.728005 403.528,173.688 C403.528,172.855996 403.077338,172.44 402.176,172.44 C399.54132,172.335999 398.224,171.088012 398.224,168.696 C398.224,167.517327 398.639996,166.512004 399.472,165.68 C400.304004,164.847996 401.309327,164.432 402.488,164.432 C404.013341,164.432 405.226662,165.021327 406.128,166.2 C407.029338,167.378673 407.48,168.869324 407.48,170.672 C407.48,173.445347 406.717341,175.54266 405.192,176.964 C403.666659,178.38534 401.621346,179.303998 399.056,179.72 L399.056,177.744 Z" transform="translate(-386 -164)"/>
</svg>