<svg xmlns="http://www.w3.org/2000/svg" width="21" height="16" viewBox="0 0 21 16">
  <path fill="#D9D9D9" d="M36.128,117.408 C33.1466518,117.928003 31.656,119.279989 31.656,121.464 C31.656,122.053336 31.924664,122.408666 32.462,122.53 C32.999336,122.651334 33.59733,122.798666 34.256,122.972 C34.91467,123.145334 35.512664,123.448665 36.05,123.882 C36.587336,124.315336 36.856,125.138661 36.856,126.352 C36.856,127.600006 36.4573373,128.639996 35.66,129.472 C34.8626627,130.304004 33.8746726,130.72 32.696,130.72 C31.170659,130.72 29.9400047,130.130673 29.004,128.952 C28.0679953,127.773327 27.6,126.248009 27.6,124.376 C27.6,121.775987 28.3973254,119.713341 29.992,118.188 C31.5866746,116.662659 33.6319875,115.744002 36.128,115.432 L36.128,117.408 Z M24.688,117.408 C21.7066518,117.928003 20.216,119.279989 20.216,121.464 C20.216,122.088003 20.484664,122.451999 21.022,122.556 C21.559336,122.660001 22.15733,122.781333 22.816,122.92 C23.47467,123.058667 24.072664,123.344664 24.61,123.778 C25.147336,124.211335 25.416,125.069327 25.416,126.352 C25.416,127.600006 25.0173373,128.639996 24.22,129.472 C23.4226627,130.304004 22.4346726,130.72 21.256,130.72 C19.730659,130.72 18.5000047,130.130673 17.564,128.952 C16.6279953,127.773327 16.16,126.248009 16.16,124.376 C16.16,121.775987 16.9573254,119.713341 18.552,118.188 C20.1466746,116.662659 22.1919875,115.744002 24.688,115.432 L24.688,117.408 Z" transform="translate(-16 -115)"/>
</svg>