<svg xmlns="http://www.w3.org/2000/svg" width="32" height="32" viewBox="0 0 32 32">
	<path
		fill="#FFF"
		fill-rule="evenodd"
		d="M0,4.0042577 C0,1.79276724 1.78902751,0 4.0042577,0 L27.9957423,0 C30.2072328,0 32,1.78902751 32,4.0042577 L32,27.9957423 C32,30.2072328 30.2109725,32 27.9957423,32 L4.0042577,32 C1.79276724,32 0,30.2109725 0,27.9957423 L0,4.0042577 Z M14.958,31.041 L19.951,31.041 L19.951,19.034 L24.422,19.034 L24.629,14.104 L19.951,14.104 C19.951,8.886 19.951,12.929 19.951,11.977 C19.951,10.773 20.204,10.047 21.778,10.047 C23.233,10.047 24.899,10.06 24.899,10.06 L24.919,5.169 C24.919,5.169 23.362,5 21.594,5 C17.228,5 14.958,7.692 14.958,10.623 L14.958,14.104 L12,14.104 L12,19.034 L14.958,19.034 L14.958,31.041 Z"
	/>
</svg>

