<svg xmlns="http://www.w3.org/2000/svg" width="32" height="32" viewBox="0 0 32 32">
  <path fill="#FFF" fill-rule="evenodd" d="M31.3338436,8.49732129 C32,10.9905097 32,16.1997551 32,16.1997551 C32,16.1997551 32,21.4065514 31.3338436,23.9021889 C30.9609805,25.2818634 29.8826754,26.3592358 28.5026787,26.7309046 C26.0070412,27.3995102 16,27.3995102 16,27.3995102 C16,27.3995102 5.99785703,27.3995102 3.49732129,26.7309046 C2.11732464,26.3592358 1.03901947,25.2818634 0.666156437,23.9021889 C-1.42108547e-14,21.4090005 -1.42108547e-14,16.1997551 -1.42108547e-14,16.1997551 C-1.42108547e-14,16.1997551 -1.42108547e-14,10.9905097 0.666156437,8.49732129 C1.04180878,7.11438003 2.12501715,6.03583664 3.50956681,5.66615644 C5.99785703,5 16,5 16,5 C16,5 26.0070412,5 28.5026787,5.66615644 C29.8825168,6.03961073 30.9603893,7.11748319 31.3338436,8.49732129 Z M13,21 L21,16 L13,11 L13,21 Z"/>
</svg>
